<?xml version="1.0" encoding="UTF-8" standalone="no"?>
<!-- Created with Inkscape (http://www.inkscape.org/) -->

<svg
   xmlns:dc="http://purl.org/dc/elements/1.1/"
   xmlns:cc="http://creativecommons.org/ns#"
   xmlns:rdf="http://www.w3.org/1999/02/22-rdf-syntax-ns#"
   xmlns:svg="http://www.w3.org/2000/svg"
   xmlns="http://www.w3.org/2000/svg"
   xmlns:sodipodi="http://sodipodi.sourceforge.net/DTD/sodipodi-0.dtd"
   xmlns:inkscape="http://www.inkscape.org/namespaces/inkscape"
   width="60"
   height="60"
   viewBox="0 0 59.999999 60.000002"
   version="1.1"
   id="svg8"
   sodipodi:docname="oc_options.svg"
   inkscape:version="0.92.3 (2405546, 2018-03-11)">
  <defs
     id="defs2" />
  <sodipodi:namedview
     id="base"
     pagecolor="#ffffff"
     bordercolor="#666666"
     borderopacity="1.0"
     inkscape:pageopacity="0.0"
     inkscape:pageshadow="2"
     inkscape:zoom="3.959798"
     inkscape:cx="-125.44686"
     inkscape:cy="8.4999798"
     inkscape:document-units="px"
     inkscape:current-layer="layer1"
     showgrid="false"
     units="px" />
  <metadata
     id="metadata5">
    <rdf:RDF>
      <cc:Work
         rdf:about="">
        <dc:format>image/svg+xml</dc:format>
        <dc:type
           rdf:resource="http://purl.org/dc/dcmitype/StillImage" />
        <dc:title></dc:title>
        <dc:creator>
          <cc:Agent>
            <dc:title>Aristotelis P. (Glutanimate)</dc:title>
          </cc:Agent>
        </dc:creator>
        <dc:rights>
          <cc:Agent>
            <dc:title>Copyright (c) 2019 Aristotelis P. (Glutanimate)</dc:title>
          </cc:Agent>
        </dc:rights>
        <dc:source>https://glutanimate.com</dc:source>
      </cc:Work>
    </rdf:RDF>
  </metadata>
  <g
     inkscape:label="Layer 1"
     inkscape:groupmode="layer"
     id="layer1"
     transform="translate(0,-1062.5196)">
    <g
       id="g822"
       transform="matrix(1.2503609,0,0,1.2503609,-7.5108286,-273.52425)">
      <g
         id="text817"
         style="font-style:normal;font-variant:normal;font-weight:900;font-stretch:semi-condensed;font-size:45.34347153px;line-height:1000%;font-family:'Myriad Pro';-inkscape-font-specification:'Myriad Pro Heavy Semi-Condensed';text-align:center;writing-mode:lr-tb;text-anchor:middle;opacity:1;fill:#022255;fill-opacity:1;fill-rule:evenodd;stroke:none;stroke-width:0;stroke-miterlimit:4;stroke-dasharray:none;stroke-dashoffset:0;stroke-opacity:1"
         aria-label="[   ]">
        <path
           id="path819"
           style="fill:#022255;fill-opacity:1;stroke:none;stroke-width:0"
           d="m 15.483714,1110.6117 v -4.3983 h -3.899538 v -27.3875 h 3.899538 v -4.3983 H 6.0069285 v 36.1841 z"
           inkscape:connector-curvature="0" />
        <path
           id="path821"
           style="fill:#022255;fill-opacity:1;stroke:none;stroke-width:0"
           d="m 44.516289,1074.4276 v 4.3983 h 3.899538 v 27.3875 h -3.899538 v 4.3983 h 9.476785 v -36.1841 z"
           inkscape:connector-curvature="0" />
      </g>
      <g
         transform="matrix(-0.54064619,0,0,-0.54064619,46.219386,1108.4432)"
         id="g864"
         style="clip-rule:evenodd;fill:#0e74ff;fill-opacity:1;fill-rule:evenodd;stroke-linejoin:round;stroke-miterlimit:1.41420996">
        <path
           style="fill:#0e74ff;fill-opacity:1"
           inkscape:connector-curvature="0"
           d="m 34.69,2.396 c -3.104,-0.528 -6.276,-0.528 -9.38,0 -0.42,2.972 -0.832,5.946 -1.238,8.92 -1.766,0.561 -3.444,1.369 -4.984,2.4 -2.578,-1.537 -5.16,-3.069 -7.746,-4.594 -2.348,2.098 -4.325,4.578 -5.848,7.334 2.062,2.181 4.13,4.358 6.203,6.529 -0.664,1.731 -1.078,3.547 -1.231,5.393 -2.81,1.058 -5.617,2.121 -8.422,3.192 0.177,3.144 0.882,6.236 2.087,9.145 2.992,-0.252 5.983,-0.512 8.973,-0.778 0.939,1.597 2.1,3.053 3.449,4.325 -0.926,2.855 -1.844,5.713 -2.756,8.574 2.568,1.822 5.426,3.198 8.452,4.07 1.667,-2.496 3.329,-4.997 4.985,-7.501 1.835,0.262 3.697,0.262 5.532,0 1.656,2.504 3.318,5.005 4.985,7.501 3.026,-0.872 5.884,-2.248 8.452,-4.07 -0.912,-2.861 -1.83,-5.719 -2.756,-8.574 1.349,-1.272 2.51,-2.728 3.449,-4.325 2.99,0.266 5.981,0.526 8.973,0.778 1.205,-2.909 1.91,-6.001 2.087,-9.145 -2.805,-1.071 -5.612,-2.134 -8.422,-3.192 -0.153,-1.846 -0.567,-3.662 -1.231,-5.393 2.073,-2.171 4.141,-4.348 6.203,-6.529 -1.523,-2.756 -3.5,-5.236 -5.848,-7.334 -2.586,1.525 -5.168,3.057 -7.746,4.594 -1.54,-1.031 -3.218,-1.839 -4.984,-2.4 C 35.522,8.342 35.11,5.368 34.69,2.396 Z M 30,22.545 c 4.114,0 7.455,3.341 7.455,7.455 0,4.114 -3.341,7.455 -7.455,7.455 -4.114,0 -7.455,-3.341 -7.455,-7.455 0,-4.114 3.341,-7.455 7.455,-7.455 z"
           id="path862" />
      </g>
    </g>
  </g>
</svg>
